<svg width="55" height="56" viewBox="0 0 55 56" fill="none" xmlns="http://www.w3.org/2000/svg">
<path d="M10.35 36.3333C5.81415 38.0981 3 40.5569 3 43.2769C3 48.6469 13.969 53 27.5 53C41.0311 53 52 48.6469 52 43.2769C52 40.5569 49.1858 38.0981 44.65 36.3333M27.5 19.6667H27.5272M43.8333 19.6667C43.8333 30.9547 31.5833 36.3333 27.5 44.6667C23.4167 36.3333 11.1667 30.9547 11.1667 19.6667C11.1667 10.4619 18.4793 3 27.5 3C36.5206 3 43.8333 10.4619 43.8333 19.6667ZM30.2222 19.6667C30.2222 21.2008 29.0035 22.4444 27.5 22.4444C25.9965 22.4444 24.7778 21.2008 24.7778 19.6667C24.7778 18.1326 25.9965 16.8889 27.5 16.8889C29.0035 16.8889 30.2222 18.1326 30.2222 19.6667Z" stroke="white" stroke-width="5" stroke-linecap="round" stroke-linejoin="round"/>
</svg>
