<svg width="50" height="52" viewBox="0 0 50 52" fill="none" xmlns="http://www.w3.org/2000/svg">
<path d="M20.7672 1.06786C21.92 0.369322 23.2422 0 24.5902 0C25.9381 0 27.2603 0.369322 28.4131 1.06786L45.6262 11.5006C46.7109 12.1579 47.6079 13.0837 48.2304 14.1887C48.853 15.2937 49.1802 16.5405 49.1803 17.8088V19.658C49.1803 20.3102 48.9213 20.9357 48.4601 21.3968C47.9989 21.858 47.3735 22.117 46.7213 22.117C46.0691 22.117 45.4437 21.858 44.9825 21.3968C44.5214 20.9357 44.2623 20.3102 44.2623 19.658V17.8088C44.2627 17.3858 44.154 16.9698 43.9467 16.6011C43.7393 16.2323 43.4404 15.9233 43.0787 15.7039L25.8656 5.27441C25.481 5.04114 25.0399 4.9178 24.5902 4.9178C24.1404 4.9178 23.6993 5.04114 23.3148 5.27441L6.10164 15.7039C5.73996 15.9233 5.441 16.2323 5.23365 16.6011C5.02631 16.9698 4.9176 17.3858 4.91803 17.8088V34.622C4.9176 35.045 5.02631 35.461 5.23365 35.8297C5.441 36.1984 5.73996 36.5075 6.10164 36.7269L19.3082 44.7269C19.5844 44.8944 19.8249 45.1146 20.016 45.375C20.2071 45.6355 20.345 45.931 20.4219 46.2448C20.4988 46.5585 20.5131 46.8843 20.464 47.2036C20.415 47.5229 20.3036 47.8293 20.1361 48.1056C19.9686 48.3818 19.7483 48.6223 19.4879 48.8134C19.2274 49.0044 18.9319 49.1424 18.6182 49.2192C18.3044 49.2961 17.9786 49.3104 17.6594 49.2614C17.3401 49.2124 17.0336 49.1009 16.7574 48.9334L3.5541 40.9334C2.46844 40.2756 1.5709 39.3487 0.948285 38.2425C0.325669 37.1363 -0.000954816 35.8881 2.09656e-06 34.6187V17.8088C0.000173189 16.5405 0.327333 15.2937 0.949895 14.1887C1.57246 13.0837 2.46939 12.1579 3.5541 11.5006L20.7672 1.06786Z" fill="#D9D9D9"/>
<path fill-rule="evenodd" clip-rule="evenodd" d="M36.8811 24.0022L36.8843 23.8645V22.9268C36.8843 22.2746 36.6253 21.6492 36.1641 21.188C35.703 20.7268 35.0775 20.4678 34.4253 20.4678C33.7732 20.4678 33.1477 20.7268 32.6865 21.188C32.2254 21.6492 31.9663 22.2746 31.9663 22.9268V23.8645L31.9696 24.0022C30.4274 24.3153 28.9601 24.9232 27.6483 25.7924C27.6164 25.7587 27.5836 25.7259 27.5499 25.694L26.8909 25.0284C26.4248 24.5941 25.8082 24.3576 25.1712 24.3688C24.5341 24.3801 23.9263 24.6382 23.4758 25.0887C23.0252 25.5392 22.7671 26.147 22.7559 26.7841C22.7447 27.4211 22.9811 28.0377 23.4155 28.5038L24.0745 29.1694L24.1729 29.2612C23.3204 30.553 22.6975 32.0153 22.3794 33.5858C22.3357 33.5837 22.292 33.5826 22.2483 33.5825H21.3106C20.6584 33.5825 20.0329 33.8416 19.5718 34.3028C19.1106 34.7639 18.8516 35.3894 18.8516 36.0415C18.8516 36.6937 19.1106 37.3192 19.5718 37.7803C20.0329 38.2415 20.6584 38.5006 21.3106 38.5006H22.2483L22.3729 38.4973C22.6909 40.0711 23.3106 41.5333 24.1663 42.8251C24.1349 42.8538 24.1043 42.8833 24.0745 42.9137L23.4122 43.576C22.9779 44.0421 22.7414 44.6587 22.7526 45.2957C22.7639 45.9328 23.0219 46.5406 23.4725 46.9911C23.923 47.4417 24.5308 47.6997 25.1679 47.711C25.8049 47.7222 26.4215 47.4857 26.8876 47.0514L27.5532 46.3891C27.5813 46.3614 27.6086 46.333 27.6352 46.3038C28.9303 47.1596 30.3958 47.7792 31.9696 48.1006L31.9663 48.2186V49.1563C31.9663 49.8085 32.2254 50.4339 32.6865 50.8951C33.1477 51.3562 33.7732 51.6153 34.4253 51.6153C35.0775 51.6153 35.703 51.3562 36.1641 50.8951C36.6253 50.4339 36.8843 49.8085 36.8843 49.1563V48.2186V48.1006C38.4581 47.7825 39.9204 47.1596 41.2122 46.3038L41.2975 46.3891L41.9598 47.0547C42.4237 47.5024 43.045 47.7499 43.6898 47.744C44.3345 47.7381 44.9511 47.4792 45.4069 47.0231C45.8626 46.5669 46.1209 45.9501 46.1262 45.3053C46.1315 44.6606 45.8833 44.0395 45.4352 43.576L44.7761 42.9137C44.7464 42.8844 44.7158 42.856 44.6843 42.8284C45.5401 41.5333 46.1598 40.0678 46.4778 38.4973H47.5401C48.1923 38.4973 48.8177 38.2382 49.2789 37.7771C49.74 37.3159 49.9991 36.6904 49.9991 36.0383C49.9991 35.3861 49.74 34.7606 49.2789 34.2995C48.8177 33.8383 48.1923 33.5792 47.5401 33.5792H46.6024L46.4712 33.5858C46.1572 32.0423 45.5482 30.574 44.6778 29.2612L44.7761 29.1694L45.4384 28.5071C45.8866 28.0436 46.1348 27.4225 46.1295 26.7778C46.1242 26.133 45.8658 25.5161 45.4101 25.06C44.9544 24.6039 44.3378 24.345 43.693 24.3391C43.0483 24.3331 42.427 24.5807 41.963 25.0284L41.2975 25.6907L41.2024 25.7891C39.8903 24.921 38.423 24.3143 36.8811 24.0022ZM34.4253 28.6743C33.4562 28.673 32.4963 28.863 31.6007 29.2332C30.7051 29.6035 29.8914 30.1468 29.2061 30.8321C28.5208 31.5174 27.9775 32.3312 27.6072 33.2268C27.2369 34.1224 27.047 35.0822 27.0483 36.0514C27.047 37.0205 27.2369 37.9804 27.6072 38.876C27.9775 39.7716 28.5208 40.5853 29.2061 41.2706C29.8914 41.9559 30.7051 42.4992 31.6007 42.8695C32.4963 43.2398 33.4562 43.4297 34.4253 43.4284C35.3945 43.4297 36.3543 43.2398 37.2499 42.8695C38.1455 42.4992 38.9593 41.9559 39.6446 41.2706C40.3299 40.5853 40.8732 39.7716 41.2435 38.876C41.6137 37.9804 41.8037 37.0205 41.8024 36.0514C41.8037 35.0822 41.6137 34.1224 41.2435 33.2268C40.8732 32.3312 40.3299 31.5174 39.6446 30.8321C38.9593 30.1468 38.1455 29.6035 37.2499 29.2332C36.3543 28.863 35.3945 28.673 34.4253 28.6743Z" fill="#D9D9D9"/>
</svg>
