<svg width="50" height="55" viewBox="0 0 50 55" fill="none" xmlns="http://www.w3.org/2000/svg">
<path fill-rule="evenodd" clip-rule="evenodd" d="M5.46883 25.947C5.07505 26.8975 5 27.3832 5 27.5V47.5045C5 48.8823 6.1163 50 7.5 50H15V35C15 32.2385 17.2386 30 20 30H30C32.7615 30 35 32.2385 35 35V50H42.5C43.8838 50 45 48.8823 45 47.5045V27.5C45 27.3832 44.925 26.8975 44.5312 25.947C44.1655 25.064 43.6107 23.9815 42.8867 22.7563C41.441 20.3095 39.4125 17.45 37.142 14.7255C34.8662 11.9947 32.4098 9.47423 30.1255 7.66135C28.9838 6.7551 27.934 6.0652 27.0138 5.611C26.0725 5.14655 25.4102 5 25 5C24.5898 5 23.9275 5.14655 22.9862 5.611C22.066 6.0652 21.0163 6.7551 19.8745 7.66135C17.5902 9.47423 15.1337 11.9947 12.858 14.7255C10.5876 17.45 8.55903 20.3095 7.11325 22.7563C6.3892 23.9815 5.83463 25.064 5.46883 25.947ZM20.7735 1.12727C22.0882 0.47845 23.5352 0 25 0C26.4648 0 27.9118 0.47845 29.2265 1.12727C30.562 1.78635 31.9147 2.69803 33.2337 3.7449C35.8715 5.83828 38.5713 8.6303 40.983 11.5245C43.4002 14.425 45.5903 17.503 47.1915 20.2126C47.9907 21.5653 48.6668 22.8655 49.1505 24.0335C49.6063 25.1338 50 26.3668 50 27.5V47.5045C50 51.6497 46.6393 55 42.5 55H35C32.2385 55 30 52.7615 30 50V35H20V50C20 52.7615 17.7614 55 15 55H7.5C3.36085 55 0 51.6497 0 47.5045V27.5C0 26.3668 0.3937 25.1338 0.84955 24.0335C1.33335 22.8655 2.00923 21.5653 2.80863 20.2126C4.40973 17.503 6.59987 14.425 9.01695 11.5245C11.4288 8.6303 14.1285 5.83828 16.7662 3.7449C18.0852 2.69803 19.438 1.78635 20.7735 1.12727Z" fill="#D9D9D9"/>
</svg>
