<svg width="50" height="50" viewBox="0 0 50 50" fill="none" xmlns="http://www.w3.org/2000/svg">
<path d="M23.447 0L21.8315 3.67198C20.9968 3.72249 20.1648 3.82752 19.3407 3.98581L16.8696 0.808997L14.2061 1.71056L14.1928 5.75238C13.0646 6.32975 11.9833 7.02779 10.9619 7.8425L7.19767 6.15518L5.27049 8.19596L7.19757 11.8349C6.57643 12.7168 6.03799 13.6388 5.58233 14.5922L1.44945 14.7044L0.610305 17.3757L3.94713 19.8228C3.78739 20.8139 3.70938 21.8155 3.70492 22.8178L0 24.6868L0.388048 27.4606L4.45459 28.2531C4.69701 29.0965 4.99665 29.9254 5.35678 30.7363L2.67685 34.0485L4.17268 36.4192L8.33868 35.4485C8.60084 35.7544 8.8733 36.0568 9.15786 36.3498C9.75681 36.9664 10.3854 37.5339 11.0387 38.0537L10.2293 42.2079L12.664 43.608L15.8448 40.8507C16.7582 41.2165 17.6953 41.509 18.6476 41.729L19.6859 45.7873L22.4885 46.0152L24.1735 42.1879C25.3378 42.1181 26.4984 41.9449 27.6396 41.6661L30.3165 44.7537L32.9268 43.7135L32.8503 42.1483L26.7573 37.5485C24.9834 37.995 23.144 38.1145 21.3374 37.9116C17.9671 37.5333 14.7281 36.018 12.1863 33.401C6.37636 27.4187 6.54247 17.9027 12.5512 12.1188C15.4615 9.3172 19.2051 7.89597 22.9529 7.85571C26.9427 7.8128 30.9361 9.33464 33.9318 12.4192C38.8073 17.4397 39.4719 24.9922 36.0081 30.7099L39.4014 33.2723C39.8256 32.6087 40.2074 31.9251 40.5424 31.225L44.6452 31.1127L45.4844 28.4414L42.171 26.011C42.3316 25.0117 42.4111 23.9996 42.413 22.9895L46.0948 21.1271L45.7069 18.3533L41.6438 17.5608C41.3046 16.3992 40.8537 15.2613 40.2905 14.1662L42.7116 10.8277L41.0929 8.53927L37.1063 9.69169C37.0562 9.63886 37.0076 9.58529 36.9569 9.53319C36.3203 8.87752 35.6482 8.27679 34.9469 7.73007L35.7098 3.80713L33.2749 2.40713L30.2499 5.02918C29.2707 4.63683 28.2649 4.33145 27.2448 4.10458L26.2531 0.227821L23.447 0ZM17.2743 16.2201C16.1764 16.2326 15.0881 16.501 14.0901 16.9894L18.8897 20.6153C20.3413 21.7117 20.753 23.7954 19.6391 25.258C18.5248 26.7215 16.3853 26.9415 14.9127 25.8295L10.1164 22.207C9.62531 24.8268 10.5553 27.6027 12.833 29.3231C14.8756 30.8655 17.4972 31.1543 19.7554 30.3468L20.2628 30.165L20.6905 30.4887L35.0396 41.3265L35.4673 41.65L35.4308 42.185C35.2571 44.5679 36.2364 47.0046 38.28 48.5481C40.5578 50.2684 43.4963 50.411 45.8988 49.2349L41.1027 45.6126C39.6301 44.5003 39.2684 42.3891 40.3831 40.9268C41.4976 39.4644 43.6243 39.299 45.0763 40.3951L49.8725 44.0178C50.3625 41.3989 49.4363 38.6216 47.1593 36.9016C45.1094 35.3527 42.5085 35.0459 40.2636 35.8414L39.7594 36.0198L39.3317 35.6962L24.9826 24.8586L24.5548 24.5349L24.5914 24.0034C24.7559 21.6378 23.7582 19.2278 21.7089 17.6797C20.3775 16.6742 18.8196 16.2027 17.2744 16.2202L17.2743 16.2201ZM21.8981 25.7567L39.2918 38.8959L38.0943 40.471L20.6973 27.3285L21.8981 25.7567Z" fill="#D9D9D9"/>
</svg>
