<svg width="56" height="56" viewBox="0 0 56 56" fill="none" xmlns="http://www.w3.org/2000/svg">
<path d="M36.3333 19.6667H36.3611M36.3333 36.3333C45.5381 36.3333 53 28.8714 53 19.6667C53 10.4619 45.5381 3 36.3333 3C27.1286 3 19.6667 10.4619 19.6667 19.6667C19.6667 20.4269 19.7176 21.1752 19.8161 21.9084C19.9783 23.1144 20.0593 23.7175 20.0048 24.0989C19.9479 24.4964 19.8756 24.7103 19.6797 25.0608C19.4917 25.3972 19.1603 25.7286 18.4976 26.3914L4.30175 40.5872C3.82133 41.0675 3.58111 41.3078 3.40933 41.5881C3.25703 41.8367 3.14481 42.1075 3.07675 42.3911C3 42.7108 3 43.0506 3 43.7297V48.5556C3 50.1114 3 50.8892 3.30275 51.4833C3.56908 52.0061 3.99403 52.4308 4.51669 52.6972C5.11089 53 5.88875 53 7.44444 53H12.2702C12.9496 53 13.2893 53 13.609 52.9233C13.8924 52.8553 14.1634 52.7431 14.4119 52.5906C14.6922 52.4189 14.9324 52.1786 15.4129 51.6983L29.6086 37.5025C30.2714 36.8397 30.6028 36.5083 30.9392 36.3203C31.2897 36.1244 31.5036 36.0519 31.9011 35.9953C32.2825 35.9406 32.8856 36.0217 34.0917 36.1839C34.8247 36.2825 35.5731 36.3333 36.3333 36.3333Z" stroke="#D9D9D9" stroke-width="5" stroke-linecap="round" stroke-linejoin="round"/>
</svg>
