<svg width="50" height="50" viewBox="0 0 50 50" fill="none" xmlns="http://www.w3.org/2000/svg">
<path d="M34.8333 7.83333L42.25 15.25C43.9167 16.8333 43.9167 19.5 42.25 21.0833L22.9167 40.3333V13.8333L28.9167 7.83333C30.5 6.16667 33.25 6.16667 34.8333 7.83333ZM50 35.4167V45.8333C50 48.1667 48.1667 50 45.8333 50H19.8333L38.5833 31.25H45.8333C48.1667 31.25 50 33.1667 50 35.4167ZM0 40.6667V4.16667C0 1.83333 1.83333 0 4.16667 0H14.5833C16.9167 0 18.75 1.83333 18.75 4.16667V40.6667C18.75 45.8333 14.5833 50 9.41667 50C4.25 50 0 45.8333 0 40.6667ZM9.33333 44.8333C11.6667 44.8333 13.5 43 13.5 40.6667C13.5 38.3333 11.6667 36.5 9.33333 36.5C7 36.5 5.16667 38.3333 5.16667 40.6667C5.16667 43 7.08333 44.8333 9.33333 44.8333Z" fill="#D9D9D9"/>
</svg>
