<svg width="50" height="58" viewBox="0 0 50 58" fill="none" xmlns="http://www.w3.org/2000/svg">
<path d="M45.8333 0H8.33333C7.22826 0 6.16846 0.436478 5.38705 1.21341C4.60565 1.99035 4.16667 3.0441 4.16667 4.14286V12.4286H0V16.5714H4.16667V26.9286H0V31.0714H4.16667V41.4286H0V45.5714H4.16667V53.8571C4.16667 54.9559 4.60565 56.0096 5.38705 56.7866C6.16846 57.5635 7.22826 58 8.33333 58H45.8333C46.9384 58 47.9982 57.5635 48.7796 56.7866C49.561 56.0096 50 54.9559 50 53.8571V4.14286C50 3.0441 49.561 1.99035 48.7796 1.21341C47.9982 0.436478 46.9384 0 45.8333 0ZM45.8333 53.8571H8.33333V45.5714H12.5V41.4286H8.33333V31.0714H12.5V26.9286H8.33333V16.5714H12.5V12.4286H8.33333V4.14286H45.8333V53.8571Z" fill="#D9D9D9"/>
<path d="M35 14H20V17.75H35V14Z" fill="#D9D9D9"/>
<path d="M35 27.125H20V30.875H35V27.125Z" fill="#D9D9D9"/>
<path d="M35 40.25H20V44H35V40.25Z" fill="#D9D9D9"/>
</svg>
