<svg width="53" height="50" viewBox="0 0 53 50" fill="none" xmlns="http://www.w3.org/2000/svg">
<path d="M36.3623 34.1653L37.6002 32.9413L34.7257 30.0665L33.488 31.2905L36.3623 34.1653ZM41.7573 32.4286L46.9496 35.2356L48.8966 31.674L43.7043 28.867L41.7573 32.4286ZM47.9492 40.8144L44.0883 44.6319L46.9626 47.5067L50.8235 43.6892L47.9492 40.8144ZM41.7359 45.861C37.7954 46.2262 27.6005 45.9008 16.5626 34.9864L13.6882 37.8612C25.7335 49.7715 37.1978 50.3531 42.1142 49.8974L41.7359 45.861ZM16.5626 34.9864C6.04115 24.5828 4.29829 15.8325 4.08133 12.0364L0.0112753 12.2664C0.284301 17.0443 2.44239 26.7414 13.6882 37.8612L16.5626 34.9864ZM20.3004 18.2832L21.0798 17.5124L18.2055 14.6377L17.4261 15.4084L20.3004 18.2832ZM21.7003 7.68773L18.2734 3.13538L15.0099 5.5649L18.4368 10.1173L21.7003 7.68773ZM6.74731 2.14454L2.48152 6.36254L5.35593 9.23729L9.62171 5.01929L6.74731 2.14454ZM18.8632 16.8458C17.4261 15.4084 17.4241 15.4104 17.4222 15.4123C17.4215 15.413 17.4195 15.4149 17.4182 15.4163C17.4156 15.4189 17.4128 15.4216 17.4101 15.4244C17.4046 15.43 17.3989 15.4358 17.393 15.4419C17.3812 15.454 17.3688 15.4671 17.3557 15.4813C17.3295 15.5096 17.3007 15.542 17.2699 15.5786C17.2082 15.6517 17.1384 15.7417 17.065 15.8494C16.9179 16.0653 16.7576 16.3508 16.6216 16.7098C16.344 17.4424 16.1953 18.408 16.3818 19.6038C16.7466 21.9424 18.3662 25.0314 22.5148 29.1335L25.3891 26.2587C21.5068 22.4198 20.582 20.0837 20.4102 18.9823C20.3284 18.4582 20.4132 18.2002 20.4366 18.1392C20.4507 18.1014 20.4575 18.0975 20.4401 18.1233C20.4314 18.1359 20.417 18.1557 20.3944 18.1823C20.3833 18.1956 20.37 18.2107 20.3545 18.2275C20.3466 18.2359 20.3384 18.2448 20.3292 18.254C20.3249 18.2587 20.3202 18.2634 20.3153 18.2683C20.3129 18.2707 20.3104 18.2732 20.308 18.2757C20.3069 18.2769 20.305 18.2788 20.3042 18.2794C20.3023 18.2813 20.3004 18.2832 18.8632 16.8458ZM22.5148 29.1335C26.6648 33.2369 29.7856 34.8339 32.1411 35.1934C33.3448 35.3769 34.3153 35.2304 35.0515 34.9577C35.4125 34.8239 35.7 34.6664 35.9174 34.5215C36.0261 34.4491 36.1169 34.3802 36.1906 34.3194C36.2275 34.2891 36.2601 34.2607 36.2887 34.2348C36.3031 34.2218 36.3164 34.2096 36.3286 34.198C36.3349 34.1921 36.3406 34.1864 36.3463 34.181C36.349 34.1783 36.3517 34.1756 36.3544 34.1729C36.3558 34.1715 36.358 34.1696 36.3585 34.1691C36.3604 34.1672 36.3623 34.1653 34.9252 32.7278C33.488 31.2905 33.4899 31.2886 33.4918 31.2867C33.4924 31.2862 33.4943 31.2843 33.4956 31.2829C33.4981 31.2805 33.5005 31.2781 33.503 31.2756C33.5081 31.271 33.5127 31.2664 33.5174 31.2618C33.5269 31.2529 33.5359 31.2448 33.5443 31.237C33.5611 31.2218 33.5763 31.2086 33.5899 31.1978C33.6166 31.1756 33.6364 31.1616 33.6486 31.1532C33.6739 31.1364 33.6687 31.144 33.6285 31.1589C33.5619 31.1835 33.2953 31.2681 32.7594 31.1862C31.6361 31.0151 29.2703 30.0962 25.3891 26.2587L22.5148 29.1335ZM18.2734 3.13538C15.5031 -0.544522 10.0557 -1.12681 6.74731 2.14454L9.62171 5.01929C11.0667 3.59048 13.633 3.73591 15.0099 5.5649L18.2734 3.13538ZM4.08133 12.0364C4.02787 11.101 4.45929 10.1239 5.35593 9.23729L2.48152 6.36254C1.02122 7.80648 -0.126814 9.8505 0.0112753 12.2664L4.08133 12.0364ZM44.0883 44.6319C43.3415 45.3705 42.5409 45.7864 41.7359 45.861L42.1142 49.8974C44.1106 49.7123 45.7464 48.7094 46.9626 47.5067L44.0883 44.6319ZM21.0798 17.5124C23.7555 14.8668 23.9544 10.682 21.7003 7.68773L18.4368 10.1173C19.5334 11.574 19.3704 13.4859 18.2055 14.6377L21.0798 17.5124ZM46.9496 35.2356C49.1722 36.4372 49.5184 39.2625 47.9492 40.8144L50.8235 43.6892C54.4661 40.0874 53.3428 34.0775 48.8966 31.674L46.9496 35.2356ZM37.6002 32.9413C38.6439 31.9094 40.3237 31.6537 41.7573 32.4286L43.7043 28.867C40.7594 27.2749 37.1045 27.7146 34.7257 30.0665L37.6002 32.9413Z" fill="white"/>
</svg>
